<svg id="Capa_1" data-name="Capa 1" xmlns="http://www.w3.org/2000/svg" viewBox="0 0 296.08 229.69"><defs><style>.cls-1{fill:#f9f9f9;}.cls-2{fill:#f6f6f6;}.cls-3{fill:#ecde87;}.cls-4{fill:#62a28e;}.cls-5{fill:#0b0a09;}.cls-6{fill:#e5bd98;}.cls-7{fill:#ead5b7;}.cls-8{fill:#503426;}.cls-9{fill:#eaeae6;}.cls-10{fill:#875940;}</style></defs><title>logo</title><path class="cls-1" d="M223,464.88c-3.06,3-7.29,3.6-11.1,4.59-2,.53-4.24-1.62-3.9-4.59h15Z" transform="translate(-150.3 -316.32)"/><path class="cls-1" d="M205,464.88a6.89,6.89,0,0,1-10,0h10Z" transform="translate(-150.3 -316.32)"/><path class="cls-1" d="M231,464.88c-0.15,2-1.23,3-3.25,2.93-1.81-.09-2.63-1.2-2.75-2.93h6Z" transform="translate(-150.3 -316.32)"/><path class="cls-2" d="M267,469.88c4.07-1,8.08,2,12.62,1.53,1.72-.17,3.87,1.35,2.64,4.14a4.43,4.43,0,0,0,.23,3.39c0.47,1.26,1,2.69-.49,3.56a2.7,2.7,0,0,1-3.59-.8c-1.61-2.07-3.52-1.39-5.39-.81-2.72.84-4.34,0.73-4.12-2.92,0.2-3.3-1-5.47-5.14-4.3-1.51.43-4.21,1.16-4.51-1.45-0.37-3.3,2.6-2.08,4.33-2.32A27.54,27.54,0,0,1,267,469.88Z" transform="translate(-150.3 -316.32)"/><path class="cls-2" d="M328,515.52c-0.11-3.23,0-5.59,3.38-5.61s4.56,2.39,4.36,4.91-0.15,6.23-4.33,6C327.51,520.58,328.23,517.31,328,515.52Z" transform="translate(-150.3 -316.32)"/><path class="cls-2" d="M303.15,487.79c1.61-2.18-.21-5.56,2.19-7.73,0.82-.74,1.48-2.2,2.8-1.61s1,2.07.43,3.05a17.62,17.62,0,0,0-1.78,7.16c-0.09,1.17-.52,3-2.27,2.65C303,491,302.93,489.41,303.15,487.79Z" transform="translate(-150.3 -316.32)"/><path class="cls-2" d="M319.28,482.5a28.36,28.36,0,0,1-1.3,12.25c-0.29.89-.91,1.94-2.17,1.51-1-.33-0.67-1.36-0.83-2.14C314,489.42,317.47,486.31,319.28,482.5Z" transform="translate(-150.3 -316.32)"/><path class="cls-2" d="M378.06,527.7c-1.56-1.53-3-3.2-5.33-2.93a1.27,1.27,0,0,1-1.44-1.52,1.87,1.87,0,0,1,1.27-1.19c1.76-.21,3.72-0.7,5.22.51S379.38,525.57,378.06,527.7Z" transform="translate(-150.3 -316.32)"/><path class="cls-2" d="M289.89,487.7c-1,1.14-.14,3.84-2.67,3.82-1.5,0-1.13-1.69-1.23-2.78-0.17-2,.76-3.24,2.66-3.39C290.06,485.24,289.87,486.55,289.89,487.7Z" transform="translate(-150.3 -316.32)"/><path class="cls-2" d="M322,513.68c1.27,2.45,1,4,0,7C320.73,517.56,320.74,516,322,513.68Z" transform="translate(-150.3 -316.32)"/><path class="cls-2" d="M292,478.72a3.52,3.52,0,0,1-.79-1.34,2.61,2.61,0,0,1,.79-1,2.61,2.61,0,0,1,.79,1A3.52,3.52,0,0,1,292,478.72Z" transform="translate(-150.3 -316.32)"/><path class="cls-3" d="M397.67,465a11.9,11.9,0,0,0-3.93,7.2v0c-3.86,4.33-5.31,10.22-9.42,14.44-1.06,1.08-1.27,3.45.67,4.29,1.77,0.77,4,1.11,5.16-1.32a26.66,26.66,0,0,0,1.2-3.27c1-3.19,3.18-5.18,6.56-5a9.93,9.93,0,0,0,8.66-3.66c4.85-5.38,8.69-5.63,15.15-.51,4.57,3.62,7.23,1.19,10.19-1.8h0c3.52-.57,6.28,2.61,9.81,2h0a30.74,30.74,0,0,1,2.13,14.37c-0.27,2.29.67,5-3,5.84-1.52.34-1.39,2.71-.3,3.26,6.41,3.19,6.45,8.45,5.14,14.3l0,0.06c-5.48,2.57-9.29,6.84-12.23,12a5,5,0,0,0-2,.17c-5.65,3.24-11.35,5.12-17.8,2a6.71,6.71,0,0,0-4.9.18c-7.17,3-14.82-1.53-21.94,1.57a2,2,0,0,1-1.47-.11c-5.87-2.8-12.33,1-18.24-1.65a3.21,3.21,0,0,0-2.35.55c-3.52,2.05-6.78,1.67-10.27-.31a8.14,8.14,0,0,0-7.2-.78c-3.67,1.19-7.62,4.1-11.92,1.69-2.47-1.38-5.09-1.37-7.76-1.18-4.26-.31-8.51.2-12.83-0.69-3.76-.78-6.79,1.09-7.08,5.57-1.51.23-2.64,1.18-3.92,1.91-3.36,1.94-5.39,5.57-9.09,7-5.23,2.25-10.41,4.08-16.3,2-3.51-1.23-5-4.91-8.34-6.07l-0.12-.09q-0.11-1.35-.22-2.71l-0.08-1.93c0.2-2.3.31-4.58-1.86-6.16-0.07-1,2.74-1.46.85-2.57-3.89-2.28-8.31-3.29-12.7-4.17a2.85,2.85,0,0,0-2.11,1c-2.09,2.23-4.84,3.89-6.13,6.84-5,1.55-9.95,3-14.94,0a1.17,1.17,0,0,0-1,0c-4.33,2.27-8.64.32-13,.08-5-.28-10,0.34-15-0.16-5.37-.54-8.78,2.38-10.93,6.18-4.07,7.18-10.43,9.07-17.84,10-6.71.84-12.5-1.5-18.35-4.05h0a18.34,18.34,0,0,1-3-13.11c0.18-1.41-.15-2.69-1.92-2.93-2.17-4.13-1.93-8.28-.42-12.59,0.57-1.62.32-3.53,0.44-5.3h0c2.46-.42,1.87-2.39,2-4h0a1.81,1.81,0,0,0,1.92-2.08c3.56-6.87,9.53-11.84,14.09-17.93h0c4.17-1.22,6.6-5,10.4-6.95a25.9,25.9,0,0,1,21.1-1.79c0.82,0.27,1.72.63,2.18-.3a3.21,3.21,0,0,0-.4-3.33c-3.07-4.19-4.05-9.35-6.46-13.81-1.26-2.33.11-5.56-2.71-7.21-1.35-11.31-2.85-22.59-2.19-34,0.5-8.73,2.57-17,4.76-25.48,2.56-9.87,9-17.75,12.36-27.09l-0.06,0,1-1v0a3.1,3.1,0,0,0,2-3c5.8-5.57,10.4-12.3,16.83-17.26,11.89-9.19,24.06-17.51,39.2-21,9.72-2.26,19.27-4.58,29.29-4.64,23.31-.13,44.34,6.34,63.44,20,17,12.19,29.1,28,37.11,47a102.22,102.22,0,0,1,7.71,47c-0.7,10.09-2.51,20.28-6.68,29.75A10.43,10.43,0,0,0,397.67,465ZM236.3,511.34c-0.6,1.86-1.26,3.71-1.79,5.6-0.73,2.59.91,3.93,2.79,5.17s3.79,1.67,5.49.21c4.34-3.71,8.62-7.51,11.78-13h-4c-1.28-.09-2.61-0.1-2.79-1.85a26.8,26.8,0,0,0,1.36-2.61c0.93-2.37,1.68-5-.51-6.87s-4.35-.51-6.24,1c-2.54,2.06-5.06,4.15-7.59,6.22l0,0c-0.46-2.59,1.35-6.42-2.35-7.32-3.29-.81-3.65,3.08-5,5.1a47,47,0,0,0-2.93,5.2c-1.21,2.34-2.63,4.42-5.3,5.47-1.09-6-3.39-6.78-8-3.11-2.55,2-4.58,4.79-8.38,6.54a35.79,35.79,0,0,1,4.87-10c3.65-5.75,5.82-6,9.77-1.14,1.8-2.15,1.68-4.06-.18-6.17-2.33-2.64-5-2.94-8.1-1.82-6.07,2.19-13.7,13.89-13.45,20.33,0.08,2.21,1.27,3.27,2.93,4.19,1.88,1,3.33.56,4.89-.9,1.85-1.73,3.21-4.32,6.28-4.3h0c-0.31,2.73,1.18,4.47,3.42,5.49,2.44,1.11,3.52-1.2,4.88-2.47,1.65-1.54,2.66-2.66,4.25.38,1.71,3.28,3.87,3.15,5.46-.56a23.34,23.34,0,0,1,6.06-9Zm191.43-17.17c1.65-1.52,3.88-.55,5.71-1.37,3-1.35,3.74-3.52,2.55-6.51-1.44-3.64-3.16-.56-4.69-0.18-2.57.63-5.06,1.68-7.65,2.12-1.86.32-3.82,1-4.63-2.43-0.77-3.28-6.06-4.31-6.93-1.87-1.92,5.43-5.44,5.87-10.16,4.61-1.45-.39-3.31-0.24-3.62,1.67-0.39,2.37,1.67,2.47,3.29,2.76a9,9,0,0,0,2,.07c3.14-.16,3.23,1.23,2.05,3.64-1.83,3.73-3.35,7.62-5.24,11.32a17.73,17.73,0,0,1-8.9,8.31,19.41,19.41,0,0,1,1-2.93c1.91-3.12,4-6.13,5.76-9.33,1.07-2,1.29-4.42-.61-6-1.68-1.41-3.73-1-5.5.42-2.08,1.64-4.21,3.21-6.32,4.81l-2-.81c0.15-2.18-.33-4.26-2.66-4.75s-2.84,1.88-3.81,3.31a25.39,25.39,0,0,0-1.84,3.52,40.89,40.89,0,0,1-10.76,13.51c-1.8,1.56-4,2.89-5.47.49-1.4-2.23-.17-4.41,2.51-5.44a16.49,16.49,0,0,0,8.59-8c1.09-2,1.85-3.84-.1-5.89s-4.19-2.36-6.78-1.31c-4.31,1.73-6.86,5.26-8.86,9.1-2.76,5.3-7.38,8.5-12.17,11.47-3,1.84-4.54,0-4.25-2.92a22.82,22.82,0,0,1,3-10c0.93-1.5,2.13-3.83,4-2.82,1.56,0.84.49,3-.5,4.42-0.49.7-1,1.46-.39,2.26a2,2,0,0,0,2.27.61,5.41,5.41,0,0,0,3.95-4.13c0.59-2.62.72-5.41-1.32-7.56-1.61-1.7-3.65-1.26-5.58-.46a18.11,18.11,0,0,0-8.69,7.92c-2.61,4.41-5.4,8.68-9.8,12.07a5.74,5.74,0,0,1,.39-5.06c1.66-3.26,3.13-6.63,5-9.75,1.27-2.08,1.54-3.62-.65-5s-3.57-.5-4.95,1.41A47.23,47.23,0,0,0,317.16,516a4.84,4.84,0,0,0,2.5,5.91c2.2,1.25,4.28,1.82,6.36-.26,0.94-.93,2.24-1.55,3-2.59,1.49-2,2.17-1.61,3.5.3,2.9,4.19,6.2,4.86,10.78,2.52a26.07,26.07,0,0,0,5.49-3.42c1.66-1.46,2.67-1.27,4.15.17,5.85,5.68,8.06,5.9,14.45,1.12,1.91-1.43,2.5-1.78,3.86.71,1.93,3.52,3.6,3.2,5.43-.41,1.31-2.56,1.33-6,4.87-7a3,3,0,0,1,2.41,1.25c-0.39,2.72-1.57,5.41,1.78,7.49s5.93,1,8.32-1.47c1.38-1.4,2.09-1.58,3.86,0,4.44,4,7.14,3.74,11.45-.77,2.19-2.29,3.4-3.08,5.44.24,1.89,3.09,5.4,4.5,8.71,2.86,5.79-2.86,10.08-7.61,14.37-12.89-2.55-.91-3.87-0.21-5.12,1.1-2.18,2.28-4.41,4.52-6.71,6.69-1.31,1.24-2.74,2.65-4.77,1.87a2.46,2.46,0,0,1-1.23-2.56,4,4,0,0,1,3.09-3.94c3.6-1.24,5.87-4.12,7.84-7.32,1.48-2.41,1.89-4.57-.23-6.74s-4.68-2-7.27-.65c-3.87,2-6.23,5.4-8.15,9.15a21.14,21.14,0,0,1-9.37,9.29A66.74,66.74,0,0,1,414.47,497a9.73,9.73,0,0,1,6.29-1.92C423.08,495.09,425.66,496.23,427.74,494.17ZM293,487.52c-1,2.23-1.27,3.14-1.73,4C285.1,502.72,279,514,277.41,527c-0.46,3.83-.61,7.61,2.62,10.05s6.94,1.1,10.37-.56c5.54-2.69,9.33-7.31,13.44-11.66,8.72-9.23,15.07-19.68,17.63-32.26a9,9,0,0,0-3.19-9.37c-1.31-1.11-2.55-2.36-4.38-1.77s-1.53,2.5-1.72,3.83c-2.78,19-12.85,34.25-24.78,48.57-0.66.8-1.41,1.55-2.52,1.15s-1-1.64-.93-2.57a23.87,23.87,0,0,1,.44-3.45c2.51-14.42,8-27.74,15.06-40.46,1.51-2.73,2.53-5.51-1.09-7-2.07-.87-4.56-0.3-6.85.41A84.19,84.19,0,0,0,273,490.44c-5,3-9.77,6.41-12.22,12.08-1.59,3.7.37,6.23,3.08,8.07,3.29,2.23,3.3-1.54,4.28-3C274.14,498.91,282.44,493,293,487.52Zm-109,33c-1.29,5.09-4,8.45-6.67,11.72-1.64,2-3.24,4.68-6.45,3.81-3-.81-3.85-3.48-4.14-6.24-0.35-3.33-2.19-2.81-4.15-1.65-1.63,1-3,2.31-2.62,4.44,0.4,2.4,2.21,3.64,4.23,4.55,8.86,4,20.25,0,25.45-9,1.51-2.59,3.4-5.54,1.38-8.36-2.3-3.2-6-3.23-9.58-2.29-3.37.9-6.68,2.05-10,3.09-1.42.44-3,1.27-4.18-.11s0-2.85.54-4.2c4.42-10.23,11.16-18.89,18.72-26.9,2-2.09,4.2-4.6,8.29-4.92-2.69,4.21-5.28,7.81-7.38,11.67-2.22,4.09-4,8.43-3.59,13.3,0.31,3.54,3.21,3.86,5.77,4.46,1.89,0.44,2.79-.63,2.94-2.44,0.67-8.16,4.41-15.26,7.72-22.52,2-4.36.56-7.11-4.18-7.6-3.26-.33-6.6-0.58-9.77,1.09-13.26,7-22.18,17.63-27.44,31.54-1.16,3.06-1.17,6.07,1.1,8.41a7.92,7.92,0,0,0,8.66,2.13C173.52,523,178.5,521.91,184,520.48Zm154.85-33.55a5.48,5.48,0,0,0-4.36-5.38c-3.32-.93-2.4,2.3-3.09,3.84s-0.95,3.21-1.66,4.69c-1.38,2.88.42,4,2.57,4.78C335.33,496,339,491.44,338.88,486.93Z" transform="translate(-150.3 -316.32)"/><path class="cls-4" d="M231.48,484.28c-14-13.72-21.06-30.73-23.68-49.86-0.24-1.78.25-3.7-1-5.3q0-5.83,0-11.67c1.57-6.41,1.59-13.06,3.68-19.44,11.81-36.09,36.18-57.89,73.53-64.86,39.5-7.37,77.94,15.22,94.63,46.39A91.49,91.49,0,0,1,366.49,484a10.46,10.46,0,0,1-1.56,1.21c-3.13-9.49-7.71-18.36-11.66-27.5-1.11-2.58-1.58-4.5.3-7.23,2.94-4.27,1.72-9-.82-13.17-2.42-3.95-6.25-5.25-10.82-4.43-0.87.16-1.87,0.85-2.7-.18,1-3.41,2.61-5.23,6.71-5.77,6.82-.89,10.39-8.71,7.64-15.06a14.46,14.46,0,0,1-1.68-5.56c-0.21-6.78-1.31-13.3-8.67-16.47a9.19,9.19,0,0,1-4.1-4.23c-18.37-32.38-65.21-32.55-83.52,1-1,1.81-1.6,4.15-4.05,4.79-2.2.58-2.92,2.36-3.75,4.22-2.47,5.55-3.19,11.63-6.08,17.15s1.4,13,7.92,14c4.07,0.63,5.62,2.48,6.33,6-13.06-.27-17.66,7.55-11.62,19.54a3.46,3.46,0,0,1,.06,3.29Q237.93,470,231.48,484.28Z" transform="translate(-150.3 -316.32)"/><path class="cls-5" d="M231.48,484.27q6.47-14.31,12.95-28.61a3.46,3.46,0,0,0-.06-3.29c-6-12-1.44-19.81,11.62-19.54-0.71-3.56-2.26-5.41-6.33-6-6.52-1-10.86-8.44-7.92-14s3.61-11.6,6.08-17.15c0.83-1.86,1.55-3.64,3.75-4.22,2.45-.64,3.06-3,4.05-4.79,18.31-33.57,65.15-33.4,83.52-1a9.19,9.19,0,0,0,4.1,4.23c7.35,3.16,8.46,9.68,8.67,16.47a14.46,14.46,0,0,0,1.68,5.56c2.75,6.35-.82,14.17-7.64,15.06-4.11.54-5.74,2.36-6.71,5.77,0.83,1,1.83.34,2.7,0.18,4.57-.83,8.4.48,10.82,4.43,2.54,4.14,3.76,8.9.82,13.17-1.88,2.73-1.41,4.65-.3,7.23,3.95,9.14,8.53,18,11.66,27.5l-0.18.24-1.52-.44c-0.34-1-.22-2.16-1.26-2.82a7,7,0,0,0-1.78-4.16c-0.34-.5-0.05-1.85-1-1.35-0.74.37-.16,1.3,0.55,1.74a8.81,8.81,0,0,0,1.6,4.3c0.37,0.94.2,2.18,1.44,2.67l0.17,1.79c-0.48.46-.94,0.93-1.44,1.38-5.08,4.56-8.38,4.74-13.86.95-1.51-1-.67-2.39-0.8-3.6-0.6-5.6-4-8.85-8.89-11-4.5-2-8.62-2.18-12.1,2.08-0.88,1.08-2.12,2.36-3.4,0a3.89,3.89,0,0,0-3.38-1.8c-3.58-1.87-7.17-3.27-10.79-.08H308l-0.15.24c-1,.13-1.24.93-1.59,1.66l-1.05.1a1.71,1.71,0,0,0-1.3-1.46c-2.61-2.76-6.53-1.6-9.54-3.18,0.58-.67.2-1-0.45-1.21-0.27-.25-0.54-0.51-0.83-0.75a3.16,3.16,0,0,0-.3.29l0.84,0.78,0.84,0.87c-3,3.33-7.48,2.7-11.16,4.34C274,480.85,265,485.2,258,492.8c-1.53,1.66-2.3,1.44-3.79,0-2.59-2.57-6.26-4.48-9.49-2.91C237.67,493.25,234.9,488.38,231.48,484.27Zm95.44-85.1-1-1-1.57-1.48a4.35,4.35,0,0,0-3.32-1.66c-1.19-1.1-2.35-2.23-3.56-3.31-4.13-3.69-4.51-7.37-1.16-11.56l0.54-.07,0.38,0.17,0.38-.17c4.81,0.25,9.88-.79,13.89,3.41-12.26-19-39.54-23.09-58.7-9.47a29.85,29.85,0,0,0-9.23,8.9c2.46,1,4-.29,5.7-1.34,3.47-2.12,11.84-2.21,13.23.08,3,4.88-.82,8-3.61,11.17-0.68.77-1.17,1,0,1.61l0.93,1.64-1.9.15a4.43,4.43,0,0,0-.86-1.17c-0.85-.58-0.9-0.16-1,0.71-0.21,2.51-.61,2.79-2.08,1.1-1.18-1.36-1.64-.71-1.91.16-0.67,2.1-2.91,1.93-4.13,3.16-2,.78-3.79,2.32-5.5,3-4.2,1.56-7.05,5.33-11.64,6.14-3.81.67-5.56,3.54-5.14,7.36,0.46,4.17,3.38,6.57,7.19,5.86,3.41-.64,4.16.71,5.29,3.19,7.23,15.92,19.73,24.79,37.07,26.13,19.68,1.52,37.59-11.83,42.08-27.11,0.72-2.45,2-2.76,4.48-2.11a6.65,6.65,0,0,0,8.18-5.31,6.89,6.89,0,0,0-5.62-8.07c-1.1-.24-2.53.5-3.28-0.65-3.08-4.71-7.61-7.21-12.84-8.7Zm11-7.93-1-.91c-3.28-3.12-8.13-2.16-11.78-4.57-1.26-.83-4-1.48-4.82.59-0.88,2.24,1.46,3.79,3.15,4.39a24.09,24.09,0,0,1,6.31,3.46c5.47,4,11.5,7.24,17.78,11.07,0.12-2.8-.45-4.57-1.83-6.1,0.11-.83.19-1.64-0.85-2l0,0a1,1,0,0,0-1-1h0a5.73,5.73,0,0,0-5-3l0,0a1.49,1.49,0,0,0-1-2v0Zm-86,65c-0.35-.26-0.69-0.54-1.06-0.76a5.36,5.36,0,0,0-.41.53l1.33,0.42c3.4,1.67,7.07,2.08,10.76,2.44A16.75,16.75,0,0,0,251.86,456.22ZM258,439l0,0c-3.27-2.37-7-3.24-9.77,0-2.42,2.8-4.07,6.5-.45,10,1.68,0.68,3.33,1.49,5.06,2,5.38,1.66,11,2.57,15.61,6.25,0.5,1.56.66,3.38,1.59,4.62,1.3,1.73,4.65,3.1,5.25,1.28,1.09-3.29.73-7.24,0.23-10.81-0.27-2-2.88-2.39-4.74-3l-0.14-.09C266.48,445.85,263.08,441.41,258,439Zm85.58-1.82c-3.3.23-5.94,1.91-8.47,3.84-2.9,2.22-5.56,4.86-8.74,6.56-4.89,2.62-7,6.32-6,11.67,0.29,1.54-1.48,4.11,1.28,4.51,2.13,0.31,4.75-.77,5.25-3,1.15-5,5.17-6.14,9.08-7.47,3.3-1.13,6.65-2.1,10-3s5.22-3.06,4.41-6.57S348.18,437,343.58,437.2Zm-29.06,16.31a48.78,48.78,0,0,1-30.3,1.05c-1.25-.35-2.44-1.1-2.91,1.13-1.06,5,.33,7.23,5.41,7.94a7.56,7.56,0,0,1,2.44.46c6.28,3.33,12.24,2.26,18.81.12,7.29-2.37,7.54-1.62,7-9.67A3.93,3.93,0,0,0,314.53,453.51Zm-65.24-48.39c9.94-4,17.71-11,27.07-15.11,1.32-.58,2.85-2.46,1.94-4.11-0.74-1.34-3.07-1-4.13-.45-5,2.74-10.74,2.49-15.8,6.69C254,395.81,250.2,398.58,249.29,405.12Zm109.53,69.05-0.86-.65a1.48,1.48,0,0,0-.28.72,5,5,0,0,0,.82.94Zm-51.11-3,0.86-.31a0.74,0.74,0,0,0-.24-0.31,6.18,6.18,0,0,0-.88,0Z" transform="translate(-150.3 -316.32)"/><path class="cls-4" d="M414.47,497A66.74,66.74,0,0,0,406,516.69a21.14,21.14,0,0,0,9.37-9.29c1.92-3.75,4.28-7.11,8.15-9.15,2.59-1.36,5-1.66,7.27.65s1.71,4.33.23,6.74c-2,3.2-4.24,6.07-7.84,7.32a4,4,0,0,0-3.09,3.94,2.46,2.46,0,0,0,1.23,2.56c2,0.79,3.46-.62,4.77-1.87,2.29-2.17,4.52-4.41,6.71-6.69,1.25-1.31,2.57-2,5.12-1.1-4.29,5.27-8.57,10-14.37,12.89-3.31,1.64-6.82.23-8.71-2.86-2-3.32-3.25-2.53-5.44-.24-4.31,4.51-7,4.78-11.45.77-1.78-1.6-2.49-1.42-3.86,0-2.39,2.43-4.86,3.62-8.32,1.47s-2.16-4.77-1.78-7.49l5.85-9.08,0.58-.68-0.4-.18-0.13.9c-4,1.25-6.29,4.39-8.3,7.79-3.55,1-3.57,4.48-4.87,7-1.84,3.6-3.5,3.92-5.43.41-1.37-2.49-2-2.14-3.86-.71-6.39,4.78-8.61,4.56-14.45-1.12-1.48-1.44-2.5-1.64-4.15-.17a26.07,26.07,0,0,1-5.49,3.42c-4.59,2.33-7.88,1.67-10.78-2.52-1.33-1.92-2-2.3-3.5-.3-0.77,1-2.07,1.66-3,2.59-2.08,2.07-4.16,1.5-6.36.26a4.84,4.84,0,0,1-2.5-5.91A47.23,47.23,0,0,1,325,499.45c1.38-1.91,2.76-2.83,4.95-1.41s1.92,3,.65,5c-1.9,3.11-3.36,6.49-5,9.75a5.74,5.74,0,0,0-.39,5.06c4.41-3.4,7.2-7.67,9.8-12.07a18.11,18.11,0,0,1,8.69-7.92c1.93-.8,4-1.24,5.58.46,2,2.16,1.92,4.94,1.32,7.56a5.41,5.41,0,0,1-3.95,4.13,2,2,0,0,1-2.27-.61c-0.59-.79-0.11-1.55.39-2.26,1-1.42,2.07-3.58.5-4.42-1.89-1-3.09,1.32-4,2.82a22.82,22.82,0,0,0-3,10c-0.29,3,1.29,4.76,4.25,2.92,4.79-3,9.41-6.17,12.17-11.47,2-3.84,4.55-7.36,8.86-9.1,2.6-1,4.75-.82,6.78,1.31s1.19,3.89.1,5.89a16.49,16.49,0,0,1-8.59,8c-2.68,1-3.9,3.21-2.51,5.44,1.5,2.4,3.67,1.07,5.47-.49a40.89,40.89,0,0,0,10.76-13.51,25.39,25.39,0,0,1,1.84-3.52c1-1.44,1.52-3.8,3.81-3.31s2.81,2.58,2.66,4.75a12.74,12.74,0,0,0-3.24,7l5.2-6.15c2.11-1.6,4.25-3.17,6.32-4.81,1.77-1.4,3.82-1.83,5.5-.42,1.9,1.59,1.68,4,.61,6-1.74,3.21-3.85,6.21-5.76,9.33a19.41,19.41,0,0,0-1,2.93,17.73,17.73,0,0,0,8.9-8.31c1.89-3.7,3.4-7.59,5.24-11.32,1.18-2.4,1.09-3.79-2.05-3.64a9,9,0,0,1-2-.07c-1.62-.28-3.68-0.39-3.29-2.76,0.31-1.9,2.17-2.05,3.62-1.67,4.72,1.26,8.24.82,10.16-4.61,0.86-2.44,6.16-1.42,6.93,1.87,0.81,3.47,2.77,2.75,4.63,2.43,2.6-.45,5.08-1.49,7.65-2.12,1.54-.38,3.26-3.46,4.69.18,1.18,3,.46,5.16-2.55,6.51-1.83.82-4.07-.15-5.71,1.37-3.16,0-6.33.06-9.48-.08C416,494,414.77,494.83,414.47,497Z" transform="translate(-150.3 -316.32)"/><path class="cls-4" d="M293,487.52c-10.59,5.53-18.89,11.39-24.93,20.12-1,1.42-1,5.19-4.28,3-2.71-1.84-4.68-4.37-3.08-8.07,2.44-5.68,7.26-9.09,12.22-12.08a84.19,84.19,0,0,1,18.55-8.54c2.29-.71,4.79-1.28,6.85-0.41,3.62,1.53,2.6,4.31,1.09,7-7.05,12.73-12.55,26-15.06,40.46a23.87,23.87,0,0,0-.44,3.45c0,0.93-.29,2.13.93,2.57s1.85-.35,2.52-1.15c11.93-14.31,22-29.56,24.78-48.57,0.19-1.33-.07-3.25,1.72-3.83s3.07,0.66,4.38,1.77a9,9,0,0,1,3.19,9.37c-2.56,12.58-8.92,23-17.63,32.26-4.1,4.34-7.9,9-13.44,11.66-3.42,1.66-7.06,3.07-10.37.56s-3.08-6.22-2.62-10.05C279,514,285.1,502.72,291.3,491.49,291.75,490.66,292.06,489.75,293,487.52Z" transform="translate(-150.3 -316.32)"/><path class="cls-4" d="M184,520.36c-5.53,1.43-10.51,2.5-15.34,4a7.92,7.92,0,0,1-8.66-2.13c-2.26-2.35-2.25-5.35-1.1-8.41,5.26-13.91,14.17-24.58,27.44-31.54,3.18-1.67,6.51-1.42,9.77-1.09,4.74,0.48,6.17,3.23,4.18,7.6-3.32,7.26-7.06,14.36-7.72,22.52-0.15,1.8-1,2.88-2.94,2.44-2.56-.6-5.46-0.92-5.77-4.46-0.43-4.87,1.37-9.21,3.59-13.3,2.1-3.86,4.68-7.45,7.38-11.67-4.09.32-6.32,2.83-8.29,4.92-7.56,8-14.3,16.67-18.72,26.9-0.59,1.36-1.64,2.87-.54,4.2s2.76,0.55,4.18.11c3.34-1,6.64-2.2,10-3.09,3.55-.94,7.28-0.91,9.58,2.29,2,2.82.13,5.77-1.38,8.36-5.2,8.95-16.59,12.94-25.45,9-2-.91-3.83-2.15-4.23-4.55-0.35-2.14,1-3.48,2.62-4.44,2-1.16,3.8-1.68,4.15,1.65,0.29,2.75,1.14,5.43,4.14,6.24,3.21,0.87,4.81-1.83,6.45-3.81C180.07,528.81,182.74,525.44,184,520.36Z" transform="translate(-150.3 -316.32)"/><path class="cls-4" d="M234.83,505.24c2.53-2.08,5.05-4.16,7.59-6.22,1.89-1.54,4.14-2.8,6.24-1s1.44,4.5.51,6.87a26.65,26.65,0,0,1-1.36,2.61,36.75,36.75,0,0,0-6.07,10.39c3.21-2.65,6.51-5.1,8.86-8.54h4c-3.16,5.48-7.44,9.29-11.78,13-1.7,1.46-3.67,1-5.49-.21s-3.52-2.58-2.79-5.17c0.53-1.88,1.19-3.73,1.79-5.6,1.89-2.13,4.17-4,4.49-7.14l0.86-.49-0.82.53a32.26,32.26,0,0,0-6.92,6.87,23.34,23.34,0,0,0-6.06,9c-1.58,3.72-3.75,3.85-5.46.56-1.58-3-2.59-1.92-4.25-.38-1.36,1.27-2.44,3.58-4.88,2.47-2.24-1-3.73-2.75-3.42-5.49,0.21-.41.06-0.47,0,0-3.07,0-4.44,2.57-6.28,4.3-1.56,1.46-3,1.94-4.89.9-1.65-.92-2.84-2-2.93-4.19-0.25-6.45,7.38-18.14,13.45-20.33,3.1-1.12,5.77-.82,8.1,1.82,1.86,2.11,2,4,.18,6.17-3.95-4.86-6.13-4.61-9.77,1.14a35.79,35.79,0,0,0-4.87,10c3.79-1.75,5.82-4.51,8.38-6.54,4.6-3.67,6.9-2.86,8,3.11,2.67-1,4.1-3.12,5.3-5.47a47,47,0,0,1,2.93-5.2c1.39-2,1.75-5.91,5-5.1,3.69,0.91,1.89,4.73,2.35,7.33-0.81-.07-1.64,1.38-1.56,1.39C234.2,506.67,234.44,505.86,234.83,505.24Z" transform="translate(-150.3 -316.32)"/><path class="cls-4" d="M338.88,486.8c0.14,4.51-3.56,9-6.54,7.93-2.15-.8-4-1.89-2.57-4.78,0.71-1.49,1-3.18,1.66-4.69s-0.23-4.77,3.09-3.84A5.48,5.48,0,0,1,338.88,486.8Z" transform="translate(-150.3 -316.32)"/><path class="cls-4" d="M362.93,487.24l-0.17-1.79q0.24-.19.49-0.36l1.52,0.44C364.54,486.52,363.7,486.84,362.93,487.24Z" transform="translate(-150.3 -316.32)"/><path class="cls-6" d="M306.24,476.93c0.35-.73.62-1.53,1.59-1.66C307.71,476.22,307.41,477,306.24,476.93Z" transform="translate(-150.3 -316.32)"/><path class="cls-6" d="M303.88,475.57a1.71,1.71,0,0,1,1.3,1.46A1.33,1.33,0,0,1,303.88,475.57Z" transform="translate(-150.3 -316.32)"/><path class="cls-7" d="M316.23,380.19c-3.35,4.19-3,7.87,1.16,11.56,1.21,1.08,2.38,2.21,3.56,3.31l-0.81.89c-4.57-.72-9-3.18-13.8-1.24-1.77.78-1.79,2.24-1,3.58,0.56,1,1.42,2.33,3,1.1,8.15,1.91,16.77,2.82,22.26,12.23a15.28,15.28,0,0,0-3.44-10.81l1-.88c5.23,1.49,9.76,4,12.84,8.7,0.75,1.15,2.18.4,3.28,0.65a6.89,6.89,0,0,1,5.62,8.07,6.65,6.65,0,0,1-8.18,5.31c-2.47-.64-3.76-0.33-4.48,2.11-4.48,15.28-22.4,28.63-42.08,27.11-17.34-1.34-29.84-10.21-37.07-26.13-1.13-2.48-1.87-3.83-5.29-3.19-3.81.71-6.72-1.69-7.19-5.86-0.42-3.81,1.33-6.69,5.14-7.36,4.59-.8,7.44-4.58,11.64-6.14,1.72-.64,3.53-2.17,5.5-3,1.05,0.14,1.78.14,1,1.71-1.76,3.71-1.63,3.77-1.4,6.35,5.82-6.74,13.26-8.72,21.62-8.13,2.5,0.17,4.54-.72,4.44-3.43-0.08-2.39-2.08-3.21-4.33-3.06-3.48.23-6.95,0.53-10.42,0.8-1.16-.56-0.67-0.84,0-1.61,2.79-3.18,6.58-6.29,3.61-11.17-1.4-2.29-9.76-2.2-13.23-.08-1.71,1-3.24,2.3-5.7,1.34a29.85,29.85,0,0,1,9.23-8.9c0.7,3.37,2.09,1.38,3.31.41a25.94,25.94,0,0,1,11.49-5.28c9.46-1.83,18.45-1.16,27.42,2.89,6.13,2.77,6.91,3.71,2.59,8l-0.38.17-0.38-.18-0.35-1.72C315.42,378.89,316.2,379.58,316.23,380.19Zm-34.29,24a6.82,6.82,0,0,0-6.19,2.27c-1.21,1.42-2.67,2.84-1.09,4.66,1.39,1.59,3,.92,4.29-0.44a4.55,4.55,0,0,1,5-1.35c2.12,0.71,4.42,1.9,4.92-1.51s-2.71-2.67-4.48-3.45A7.44,7.44,0,0,0,281.94,404.18Zm34.38,0.6c-2.46.15-3.5,0-4.41,0.3-2.08.63-3.64,1.88-3,4.34,0.75,2.73,2.78,1,3.91.63,2.69-.86,4.8-0.5,6.72,1.57,1.28,1.39,2.72,1.08,3.91-.12,1.7-1.71-.06-2.73-1.06-3.56C320.27,406.13,317.93,404.53,316.32,404.78ZM288.84,420c0.27,3.19,6.44,7.36,10,7.26,3.9-.11,9.62-4.31,9.57-7C303.08,424.24,294.3,424.29,288.84,420Zm22.55,15.65c-8.68,1.81-17.38.6-26.08-.16C293.94,439.9,302.61,441,311.39,435.64Z" transform="translate(-150.3 -316.32)"/><path class="cls-3" d="M343.58,437.2c4.6-.22,6,3,6.86,6.56s-0.91,5.66-4.41,6.57-6.73,1.85-10,3c-3.91,1.34-7.93,2.43-9.08,7.47-0.51,2.23-3.12,3.31-5.25,3-2.77-.4-1-3-1.28-4.51-1-5.35,1.09-9,6-11.67,3.17-1.7,5.84-4.34,8.74-6.56C337.64,439.11,340.29,437.43,343.58,437.2Z" transform="translate(-150.3 -316.32)"/><path class="cls-7" d="M314.53,453.51a3.93,3.93,0,0,1,.45,1c0.54,8,.29,7.3-7,9.67-6.57,2.13-12.53,3.21-18.81-.12a7.56,7.56,0,0,0-2.44-.46c-5.08-.71-6.47-2.9-5.41-7.94,0.47-2.23,1.66-1.49,2.91-1.13A48.78,48.78,0,0,0,314.53,453.51Z" transform="translate(-150.3 -316.32)"/><path class="cls-3" d="M268.57,457.46c-4.56-3.68-10.23-4.59-15.61-6.25-1.73-.53-3.38-1.35-5.06-2,0-1,0-2,0-3,0.07-5.52,1.24-6.7,6.72-6.82,1.16,0,2.32-.11,3.49-0.16l0,0c3.24,4.64,5.84,10.07,12.68,10.26l0.14,0.09c1,3.69,5.12,6.72,2.11,11.52Z" transform="translate(-150.3 -316.32)"/><path class="cls-8" d="M249.29,404.77c0.91-6.54,4.66-9.31,9.07-13,5.06-4.2,10.82-4,15.8-6.69,1.07-.59,3.4-0.89,4.13.45,0.91,1.65-.62,3.53-1.94,4.11C267,393.77,259.23,400.76,249.29,404.77Z" transform="translate(-150.3 -316.32)"/><path class="cls-8" d="M345.85,399.15c1.38,1.52,2,3.29,1.83,6.1-6.29-3.83-12.32-7.07-17.78-11.07a24.09,24.09,0,0,0-6.31-3.46c-1.69-.61-4-2.16-3.15-4.39,0.82-2.07,3.57-1.42,4.82-.59,3.64,2.41,8.5,1.45,11.78,4.57l1,0.91v0a1.56,1.56,0,0,0,1,2l0,0c0.65,2.71,2.84,2.85,5,3h0l1,1,0,0Z" transform="translate(-150.3 -316.32)"/><path class="cls-9" d="M317.73,380.1c4.32-4.33,3.54-5.27-2.59-8-9-4-18-4.72-27.42-2.89a25.94,25.94,0,0,0-11.49,5.28c-1.22,1-2.6,3-3.31-.41,19.16-13.62,46.44-9.5,58.7,9.47C327.6,379.31,322.53,380.35,317.73,380.1Z" transform="translate(-150.3 -316.32)"/><path class="cls-8" d="M279,394.47c3.47-.27,6.95-0.57,10.42-0.8,2.25-.15,4.25.68,4.33,3.06,0.1,2.7-1.94,3.6-4.44,3.43-8.36-.58-15.8,1.4-21.62,8.13-0.23-2.58-.36-2.65,1.4-6.35,0.74-1.57,0-1.57-1-1.71,1.23-1.23,3.46-1.06,4.13-3.16,0.28-.87.73-1.52,1.91-0.16,1.47,1.69,1.88,1.41,2.08-1.1,0.07-.87.12-1.29,1-0.71a4.42,4.42,0,0,1,.86,1.17,2,2,0,0,0,3.07.45l-1.17-.6Zm5.13,1.43c1.9,0.1,3.89.82,6.11-.29A9.81,9.81,0,0,0,284.13,395.9Z" transform="translate(-150.3 -316.32)"/><path class="cls-6" d="M268.51,457.32L273,460.9c3-4.8-1.14-7.83-2.11-11.52,1.85,0.64,4.46,1.05,4.74,3,0.49,3.57.85,7.51-.23,10.81-0.6,1.82-3.95.45-5.25-1.28C269.17,460.7,269,458.88,268.51,457.32Z" transform="translate(-150.3 -316.32)"/><path class="cls-6" d="M258.08,439.17c-1.16.05-2.32,0.14-3.49,0.16-5.48.12-6.64,1.3-6.72,6.82,0,1,0,2,0,3-3.63-3.48-2-7.18.45-10C251.11,435.93,254.8,436.8,258.08,439.17Z" transform="translate(-150.3 -316.32)"/><path class="cls-6" d="M270.82,449.44c-6.84-.19-9.44-5.62-12.68-10.26C263.21,441.56,266.61,446,270.82,449.44Z" transform="translate(-150.3 -316.32)"/><path class="cls-4" d="M251.87,456.34A16.75,16.75,0,0,1,262.49,459c-3.69-.36-7.36-0.77-10.76-2.44Z" transform="translate(-150.3 -316.32)"/><path class="cls-10" d="M344,396.19c-2.17-.17-4.36-0.31-5-3A5.73,5.73,0,0,1,344,396.19Z" transform="translate(-150.3 -316.32)"/><path class="cls-4" d="M361.33,482.76a8.83,8.83,0,0,1-1.6-4.3l0.48-.38a7,7,0,0,1,1.78,4.16Z" transform="translate(-150.3 -316.32)"/><path class="cls-7" d="M321,395.07a4.35,4.35,0,0,1,3.32,1.66q-0.32.33-.6,0.68l-2.23-.29-1.3-1.17Z" transform="translate(-150.3 -316.32)"/><path class="cls-10" d="M279.93,396.12l1.17,0.6a2,2,0,0,1-3.07-.45Z" transform="translate(-150.3 -316.32)"/><path class="cls-4" d="M362,482.25c1,0.66.92,1.84,1.26,2.82-0.17.11-.33,0.23-0.48,0.36-1.24-.48-1.06-1.72-1.44-2.66Z" transform="translate(-150.3 -316.32)"/><path class="cls-4" d="M358.83,474.29l-0.33,1a5,5,0,0,1-.82-0.94,1.48,1.48,0,0,1,.28-0.72Z" transform="translate(-150.3 -316.32)"/><path class="cls-10" d="M345.85,399.13l-0.85-2C346,397.48,346,398.3,345.85,399.13Z" transform="translate(-150.3 -316.32)"/><path class="cls-7" d="M324.28,396.73l1.57,1.48h0c-1.18,1-1.56-.21-2.16-0.79Q324,397.06,324.28,396.73Z" transform="translate(-150.3 -316.32)"/><path class="cls-10" d="M339,393.18a1.56,1.56,0,0,1-1-2A1.49,1.49,0,0,1,339,393.18Z" transform="translate(-150.3 -316.32)"/><path class="cls-9" d="M316.42,377.77c0-.61-0.81-1.3.2-1.8l0.35,1.72Z" transform="translate(-150.3 -316.32)"/><path class="cls-4" d="M359.73,478.49c-0.72-.44-1.29-1.37-0.55-1.74,1-.49.69,0.86,1,1.35Z" transform="translate(-150.3 -316.32)"/><path class="cls-10" d="M307.71,471.14l-0.25-.6a6.18,6.18,0,0,1,.88,0,0.74,0.74,0,0,1,.24.31Z" transform="translate(-150.3 -316.32)"/><path class="cls-4" d="M251.73,456.52l-1.33-.42a5.36,5.36,0,0,1,.41-0.53c0.37,0.23.71,0.5,1.06,0.76Z" transform="translate(-150.3 -316.32)"/><path class="cls-10" d="M338,388.81l-1-.91Z" transform="translate(-150.3 -316.32)"/><path class="cls-10" d="M345.07,397.23l-1-1A1,1,0,0,1,345.07,397.23Z" transform="translate(-150.3 -316.32)"/><path class="cls-7" d="M325.86,398.21l1,1-0.06.07c-0.77.08-1.66,0.27-1-1h0Z" transform="translate(-150.3 -316.32)"/><path class="cls-7" d="M326.89,399.16l1.25,0.77-1,.88c-0.32-.48-1-0.91-0.31-1.58Z" transform="translate(-150.3 -316.32)"/><path class="cls-8" d="M326.83,399.23c-0.64.67,0,1.1,0.31,1.58a15.28,15.28,0,0,1,3.44,10.81c-5.49-9.41-14.12-10.31-22.26-12.23L307,397.1c1.82-1.21,3.89-.76,5.88-0.89h0c1.4,1.72,3.31.87,5,1l0,0c0.61,1.44,1.89,1,3,1.05l0.42,0.45a0.57,0.57,0,0,0-.07-0.26,1.69,1.69,0,0,0-.34-0.21,1,1,0,0,1-.06-0.67,0.77,0.77,0,0,1,.7-0.45l2.22,0.29c0.6,0.58,1,1.78,2.16.79C325.17,399.5,326.06,399.31,326.83,399.23Z" transform="translate(-150.3 -316.32)"/><path class="cls-5" d="M282,404.2a7.44,7.44,0,0,1,2.45.18c1.77,0.78,5,.17,4.48,3.45s-2.8,2.22-4.92,1.51a4.55,4.55,0,0,0-5,1.35c-1.28,1.36-2.9,2-4.29.44-1.58-1.82-.12-3.24,1.09-4.66A6.82,6.82,0,0,1,282,404.2Z" transform="translate(-150.3 -316.32)"/><path class="cls-5" d="M316.37,404.79c1.61-.25,3.95,1.35,6.11,3.16,1,0.84,2.76,1.86,1.06,3.56-1.19,1.2-2.63,1.5-3.91.12-1.91-2.07-4-2.43-6.72-1.57-1.13.36-3.15,2.11-3.91-.63-0.68-2.47.87-3.71,3-4.34C312.88,404.82,313.91,404.94,316.37,404.79Z" transform="translate(-150.3 -316.32)"/><path class="cls-8" d="M288.89,420c5.46,4.3,14.24,4.25,19.58.24,0,2.71-5.67,6.91-9.57,7C295.34,427.37,289.17,423.19,288.89,420Z" transform="translate(-150.3 -316.32)"/><path class="cls-5" d="M311.39,435.58c-8.77,5.38-17.45,4.26-26.08-.16C294,436.18,302.71,437.39,311.39,435.58Z" transform="translate(-150.3 -316.32)"/><path class="cls-5" d="M320.16,396l1.3,1.17a0.77,0.77,0,0,0-.7.45l-2.93-.37,0,0c-1.42-1.61-3.27-1.1-5-1h0c-1.77-1.86-4.05-.57-6.05-1l-0.43-.51C311.17,392.78,315.59,395.24,320.16,396Z" transform="translate(-150.3 -316.32)"/><path class="cls-5" d="M307,397.12l1.36,2.29c-1.57,1.22-2.43-.12-3-1.1-0.76-1.34-.75-2.8,1-3.58l0.43,0.51Z" transform="translate(-150.3 -316.32)"/><path class="cls-10" d="M284.13,395.9a9.81,9.81,0,0,1,6.11-.29C288,396.72,286,396,284.13,395.9Z" transform="translate(-150.3 -316.32)"/><path class="cls-10" d="M306.95,397.1l-0.18-1.89c2,0.42,4.29-.86,6.05,1C310.84,396.34,308.77,395.9,306.95,397.1Z" transform="translate(-150.3 -316.32)"/><path class="cls-10" d="M312.83,396.21c1.76-.08,3.61-0.59,5,1C316.14,397.08,314.22,397.93,312.83,396.21Z" transform="translate(-150.3 -316.32)"/><path class="cls-10" d="M317.82,397.2l2.93,0.37a1,1,0,0,0,.06.67h0C319.72,398.17,318.43,398.64,317.82,397.2Z" transform="translate(-150.3 -316.32)"/><path class="cls-10" d="M320.82,398.24a1.69,1.69,0,0,1,.34.21,0.57,0.57,0,0,1,.07.26l-0.42-.45h0Z" transform="translate(-150.3 -316.32)"/><line class="cls-3" x1="231.95" y1="189.04" x2="233.99" y2="186.03"/><path class="cls-3" d="M417.17,495.64" transform="translate(-150.3 -316.32)"/><path class="cls-4" d="M486.67,489.39" transform="translate(-150.3 -316.32)"/><path class="cls-4" d="M209.9,517l-0.05.16,0.05-.1,0.29-.09-0.26.22-0.08.07-0.09,0,0.13-.32,0.1,0,0,0.06V517s0,0,0,.05a0.41,0.41,0,0,1-.12,0l0,0,0,0" transform="translate(-150.3 -316.32)"/><path class="cls-4" d="M234.41,505.06l0.66,0.29s-0.71,1.3-.72,1.3H233.2l-0.06-1.32" transform="translate(-150.3 -316.32)"/><polyline class="cls-4" points="83.36 194.76 86 195.03 88.11 192.73 84.65 191.67"/><polyline class="cls-4" points="85.88 192.04 88.11 192.73 88.64 192.08 89.94 188.38 85.29 190.77"/><polyline class="cls-4" points="89.94 188.38 90.48 187.97 90.86 194.25 86.02 193.93"/><path class="cls-4" d="M384.29,514.79l-2.37-3.4,6.23-8.81c3.59,2.12,4.25,2.75,4.17,2.92-0.16.33-3.32-.53-6.34-2-2.71-1.3-3.46-2.2-4.47-1.81-1.46.57-1.83,3.22-1.69,4.85a7.25,7.25,0,0,0,1.63,3.9" transform="translate(-150.3 -316.32)"/><path class="cls-4" d="M385.79,514.79c-5.17-2.5-3.35-8.46-3.35-8.46l6-1.75,1.89,1.89,0.27-1.31-1.27-.58-1.1,2.68" transform="translate(-150.3 -316.32)"/><path class="cls-4" d="M392,506.24l-3.71-1.35-0.52,3.31" transform="translate(-150.3 -316.32)"/><polyline class="cls-4" points="230.31 196.7 234.66 196.88 234.33 194.88 230.56 194.78"/><polyline class="cls-4" points="233.99 198.18 231.22 195.57 233.99 195.57"/></svg>